<mxfile host="app.diagrams.net" agent="Mozilla/5.0 (Windows NT 10.0; Win64; x64) AppleWebKit/537.36 (KHTML, like Gecko) Chrome/133.0.0.0 Safari/537.36 OPR/118.0.0.0" version="26.2.13">
  <diagram name="Page-1" id="ARHaoyVZEg5PB5ybGXNC">
    <mxGraphModel dx="1003" dy="550" grid="1" gridSize="10" guides="1" tooltips="1" connect="1" arrows="1" fold="1" page="1" pageScale="1" pageWidth="850" pageHeight="1100" math="0" shadow="0">
      <root>
        <mxCell id="0" />
        <mxCell id="1" parent="0" />
        <mxCell id="1Q-G_DXQXiuWENGHBLE8-17" style="rounded=0;orthogonalLoop=1;jettySize=auto;html=1;" parent="1" source="1Q-G_DXQXiuWENGHBLE8-1" edge="1">
          <mxGeometry relative="1" as="geometry">
            <mxPoint x="380" y="325" as="targetPoint" />
            <Array as="points">
              <mxPoint x="270" y="325" />
            </Array>
          </mxGeometry>
        </mxCell>
        <mxCell id="1Q-G_DXQXiuWENGHBLE8-18" style="edgeStyle=orthogonalEdgeStyle;rounded=0;orthogonalLoop=1;jettySize=auto;html=1;entryX=-0.008;entryY=0.906;entryDx=0;entryDy=0;entryPerimeter=0;" parent="1" source="1Q-G_DXQXiuWENGHBLE8-1" target="1Q-G_DXQXiuWENGHBLE8-3" edge="1">
          <mxGeometry relative="1" as="geometry">
            <Array as="points">
              <mxPoint x="270" y="326" />
              <mxPoint x="270" y="566" />
            </Array>
          </mxGeometry>
        </mxCell>
        <mxCell id="1Q-G_DXQXiuWENGHBLE8-1" value="User" style="shape=umlActor;verticalLabelPosition=bottom;verticalAlign=top;html=1;outlineConnect=0;" parent="1" vertex="1">
          <mxGeometry x="145" y="296.25" width="30" height="60" as="geometry" />
        </mxCell>
        <mxCell id="1Q-G_DXQXiuWENGHBLE8-2" value="Administrator of orders" style="shape=callout;whiteSpace=wrap;html=1;perimeter=calloutPerimeter;" parent="1" vertex="1">
          <mxGeometry x="100" y="206.25" width="120" height="80" as="geometry" />
        </mxCell>
        <mxCell id="1Q-G_DXQXiuWENGHBLE8-3" value="" style="rounded=0;whiteSpace=wrap;html=1;fillColor=default;" parent="1" vertex="1">
          <mxGeometry x="380" y="140" width="330" height="470" as="geometry" />
        </mxCell>
        <mxCell id="1Q-G_DXQXiuWENGHBLE8-4" value="Order Management Application&lt;div&gt;&lt;br&gt;&lt;/div&gt;" style="text;html=1;align=center;verticalAlign=middle;resizable=0;points=[];autosize=1;strokeColor=none;fillColor=none;" parent="1" vertex="1">
          <mxGeometry x="450" y="140" width="190" height="40" as="geometry" />
        </mxCell>
        <mxCell id="1Q-G_DXQXiuWENGHBLE8-10" style="edgeStyle=orthogonalEdgeStyle;rounded=0;orthogonalLoop=1;jettySize=auto;html=1;exitX=1;exitY=0.5;exitDx=0;exitDy=0;entryX=0;entryY=0.5;entryDx=0;entryDy=0;" parent="1" source="1Q-G_DXQXiuWENGHBLE8-6" target="1Q-G_DXQXiuWENGHBLE8-7" edge="1">
          <mxGeometry relative="1" as="geometry" />
        </mxCell>
        <mxCell id="1Q-G_DXQXiuWENGHBLE8-11" style="edgeStyle=orthogonalEdgeStyle;rounded=0;orthogonalLoop=1;jettySize=auto;html=1;exitX=1;exitY=0.5;exitDx=0;exitDy=0;entryX=0;entryY=0.5;entryDx=0;entryDy=0;" parent="1" source="1Q-G_DXQXiuWENGHBLE8-6" target="1Q-G_DXQXiuWENGHBLE8-8" edge="1">
          <mxGeometry relative="1" as="geometry" />
        </mxCell>
        <mxCell id="1Q-G_DXQXiuWENGHBLE8-12" style="edgeStyle=orthogonalEdgeStyle;rounded=0;orthogonalLoop=1;jettySize=auto;html=1;exitX=1;exitY=0.5;exitDx=0;exitDy=0;entryX=0;entryY=0.5;entryDx=0;entryDy=0;" parent="1" source="1Q-G_DXQXiuWENGHBLE8-6" target="1Q-G_DXQXiuWENGHBLE8-9" edge="1">
          <mxGeometry relative="1" as="geometry" />
        </mxCell>
        <mxCell id="1Q-G_DXQXiuWENGHBLE8-6" value="CRUD&amp;nbsp;&lt;div&gt;operations&lt;/div&gt;" style="ellipse;whiteSpace=wrap;html=1;" parent="1" vertex="1">
          <mxGeometry x="385" y="293.75" width="120" height="62.5" as="geometry" />
        </mxCell>
        <mxCell id="1Q-G_DXQXiuWENGHBLE8-7" value="Clients" style="ellipse;whiteSpace=wrap;html=1;" parent="1" vertex="1">
          <mxGeometry x="570" y="190" width="120" height="70" as="geometry" />
        </mxCell>
        <mxCell id="1Q-G_DXQXiuWENGHBLE8-8" value="Products" style="ellipse;whiteSpace=wrap;html=1;" parent="1" vertex="1">
          <mxGeometry x="570" y="290" width="120" height="70" as="geometry" />
        </mxCell>
        <mxCell id="1Q-G_DXQXiuWENGHBLE8-14" style="edgeStyle=orthogonalEdgeStyle;rounded=0;orthogonalLoop=1;jettySize=auto;html=1;entryX=0.5;entryY=0;entryDx=0;entryDy=0;" parent="1" source="1Q-G_DXQXiuWENGHBLE8-9" target="1Q-G_DXQXiuWENGHBLE8-13" edge="1">
          <mxGeometry relative="1" as="geometry">
            <Array as="points">
              <mxPoint x="630" y="500" />
              <mxPoint x="520" y="500" />
              <mxPoint x="520" y="520" />
            </Array>
          </mxGeometry>
        </mxCell>
        <mxCell id="1Q-G_DXQXiuWENGHBLE8-9" value="Orders" style="ellipse;whiteSpace=wrap;html=1;" parent="1" vertex="1">
          <mxGeometry x="570" y="400" width="120" height="70" as="geometry" />
        </mxCell>
        <mxCell id="1Q-G_DXQXiuWENGHBLE8-13" value="View Bills" style="ellipse;whiteSpace=wrap;html=1;" parent="1" vertex="1">
          <mxGeometry x="505" y="530" width="120" height="70" as="geometry" />
        </mxCell>
        <mxCell id="1Q-G_DXQXiuWENGHBLE8-16" style="edgeStyle=orthogonalEdgeStyle;rounded=0;orthogonalLoop=1;jettySize=auto;html=1;exitX=0.5;exitY=1;exitDx=0;exitDy=0;" parent="1" source="1Q-G_DXQXiuWENGHBLE8-3" target="1Q-G_DXQXiuWENGHBLE8-3" edge="1">
          <mxGeometry relative="1" as="geometry" />
        </mxCell>
      </root>
    </mxGraphModel>
  </diagram>
</mxfile>
